<svg xmlns="http://www.w3.org/2000/svg" viewBox="0 0 100 100"><path d="M71,3.17H29a5,5,0,0,0-5,5V41.12a5,5,0,0,0,2.08,4.05l21,15.12a5.17,5.17,0,0,0,1.45.72l-5,10.07-12.39,1.8a1,1,0,0,0-.56,1.7l9,8.75L37.46,95.67a1,1,0,0,0,1.46,1L50,90.9l11.08,5.82a1,1,0,0,0,.47.12,1.06,1.06,0,0,0,.59-.19,1,1,0,0,0,.4-1L60.42,83.33l9-8.75a1,1,0,0,0-.56-1.7l-12.39-1.8L51.47,61a5.17,5.17,0,0,0,1.45-.72l21-15.12A5,5,0,0,0,76,41.12V8.17A5,5,0,0,0,71,3.17Zm-6,2V49.12l-6,4.32V5.17Zm-24,0V53.44l-6-4.32V5.17ZM26,41.12V8.17a3,3,0,0,1,3-3h4V47.69l-5.75-4.14A3,3,0,0,1,26,41.12ZM55.63,73l10.91,1.59-7.89,7.69a1,1,0,0,0-.29.89L60.22,94l-9.75-5.13a1.06,1.06,0,0,0-.94,0L39.78,94l1.86-10.86a1,1,0,0,0-.29-.89l-7.89-7.69L44.37,73a1,1,0,0,0,.75-.55L50,62.55l4.88,9.88A1,1,0,0,0,55.63,73ZM51.75,58.67a3,3,0,0,1-3.5,0L43,54.89v-9.5h5a1,1,0,0,0,0-2H43v-1.8h3a1,1,0,0,0,0-2H43V5.17H57V54.89ZM74,41.12a3,3,0,0,1-1.24,2.42L67,47.69V5.17h4a3,3,0,0,1,3,3ZM29.64,16.59v6a1,1,0,1,1-2,0v-6a1,1,0,0,1,2,0Zm0,9v2a1,1,0,1,1-2,0v-2a1,1,0,0,1,2,0Zm32.18-8.5v-6a1,1,0,1,1,2,0v6a1,1,0,0,1-2,0Zm0,5v-2a1,1,0,1,1,2,0v2a1,1,0,0,1-2,0ZM52,44.39a1.05,1.05,0,0,1-.29.71,1,1,0,0,1-.71.29,1,1,0,0,1-.38-.07,1.06,1.06,0,0,1-.33-.22,1,1,0,0,1-.21-.32.91.91,0,0,1-.08-.39.84.84,0,0,1,.08-.38,1,1,0,0,1,.21-.32.91.91,0,0,1,.33-.22,1,1,0,0,1,1.09.22A1,1,0,0,1,52,44.39Z" data-name="ICON 15"/></svg>