<svg xmlns="http://www.w3.org/2000/svg" viewBox="0 0 64 64"><path d="M32.2,61.139h.051A29.539,29.539,0,0,0,32.2,2.061h-.05a29.539,29.539,0,0,0-20.8,50.46A29.341,29.341,0,0,0,32.2,61.139ZM8.589,38.994,10.5,40.609a1,1,0,0,0,1.292,0l2.079-1.765L15.958,40.6a1,1,0,0,0,1.292,0l1.917-1.629.263.349L11.553,49.812a27.347,27.347,0,0,1-4.984-8.128Zm1.2-1.6,4.078-5.433,4.091,5.413L16.6,38.525l-2.084-1.758a1,1,0,0,0-1.292,0l-2.079,1.765ZM32.248,59.139H32.2A27.351,27.351,0,0,1,12.95,51.283L24.7,35.625l3.031,2.558a1,1,0,0,0,1.292,0l3.184-2.7L35.4,38.17a1,1,0,0,0,1.292,0l3.013-2.558,11.8,15.62A27.353,27.353,0,0,1,32.248,59.139Zm.921-42.706,6.448-.01-2.2,3.14-4.239.007Zm-.984,9.223L38.5,34.011,36.045,36.1,32.852,33.4a1,1,0,0,0-1.292,0l-3.184,2.7-2.471-2.084Zm13,13.29,1.9,1.6a1,1,0,0,0,1.292,0l2.078-1.765,2.085,1.759a1,1,0,0,0,1.292,0l1.931-1.64,2.083,2.756a27.4,27.4,0,0,1-4.946,8.1L44.962,39.247Zm1.2-1.6L50.478,31.9l4.081,5.4-1.373,1.166L51.1,36.706a1,1,0,0,0-1.292,0L47.73,38.474ZM12.7,12.159a27.359,27.359,0,0,1,19.46-8.1H32.2a27.563,27.563,0,0,1,26.427,35.31l-7.359-9.738a1,1,0,0,0-.8-.4h0a1,1,0,0,0-.8.4l-5.968,7.95L33.181,23.658l0-2.088,4.758-.008a1,1,0,0,0,.816-.425l3.609-5.143a1,1,0,0,0-.818-1.575h0l-8.375.014,0-1.01-2,0,.017,10.235-10.5,13.993-6.015-7.961a1,1,0,0,0-.8-.4h0a1,1,0,0,0-.8.4L5.783,39.4a27.643,27.643,0,0,1-1.119-7.754A27.354,27.354,0,0,1,12.7,12.159Z"/></svg>