<svg xmlns="http://www.w3.org/2000/svg" viewBox="0 0 340 340"><path d="M316.777,42.207H23.223A16.98,16.98,0,0,0,6.262,59.169V280.831a16.98,16.98,0,0,0,16.961,16.962H316.777a16.98,16.98,0,0,0,16.961-16.962v-178.4a4,4,0,0,0-8,0v178.4a8.972,8.972,0,0,1-8.961,8.962H23.223a8.972,8.972,0,0,1-8.961-8.962V59.169a8.972,8.972,0,0,1,8.961-8.962H316.777a8.972,8.972,0,0,1,8.961,8.962V78.434H30.262a4,4,0,0,0,0,8H329.738a4,4,0,0,0,4-4V59.169A16.98,16.98,0,0,0,316.777,42.207Z"/><path d="M206.143,138.836a4,4,0,1,0-7.748,1.989A29.32,29.32,0,1,1,170,118.833c.845,0,1.7.036,2.539.108a4,4,0,0,0,.68-7.971c-1.065-.091-2.148-.137-3.219-.137a37.272,37.272,0,1,0,36.143,28Z"/><path d="M192.634 127.7a4 4 0 0 0 2.72-6.934c-.557-.516-1.14-1.024-1.734-1.511a4 4 0 0 0-5.068 6.191q.7.573 1.363 1.187A3.988 3.988 0 0 0 192.634 127.7zM201.814 202.706H138.186a4 4 0 0 0 0 8h63.628a4 4 0 0 0 0-8zM205.814 231.949a4 4 0 0 0-4-4H138.186a4 4 0 1 0 0 8h63.628A4 4 0 0 0 205.814 231.949zM138.186 253.192a4 4 0 0 0 0 8H170a4 4 0 0 0 0-8zM306.143 138.836a4 4 0 1 0-7.748 1.989A29.32 29.32 0 1 1 270 118.833c.845 0 1.7.036 2.539.108a4 4 0 0 0 .68-7.971c-1.065-.091-2.148-.137-3.219-.137a37.272 37.272 0 1 0 36.143 28z"/><path d="M292.634 127.7a4 4 0 0 0 2.72-6.934c-.557-.516-1.14-1.024-1.734-1.511a4 4 0 0 0-5.068 6.191q.7.573 1.363 1.187A3.988 3.988 0 0 0 292.634 127.7zM301.814 202.706H238.186a4 4 0 0 0 0 8h63.628a4 4 0 0 0 0-8zM305.814 231.949a4 4 0 0 0-4-4H238.186a4 4 0 1 0 0 8h63.628A4 4 0 0 0 305.814 231.949zM238.186 253.192a4 4 0 0 0 0 8H270a4 4 0 0 0 0-8zM106.143 138.836a4 4 0 1 0-7.748 1.989A29.32 29.32 0 1 1 70 118.833c.845 0 1.7.036 2.539.108a4 4 0 0 0 .68-7.971c-1.065-.091-2.148-.137-3.219-.137a37.272 37.272 0 1 0 36.143 28z"/><path d="M92.634 127.7a4 4 0 0 0 2.72-6.934c-.557-.516-1.14-1.024-1.734-1.511a4 4 0 0 0-5.068 6.191q.7.573 1.363 1.187A3.988 3.988 0 0 0 92.634 127.7zM101.814 202.706H38.186a4 4 0 0 0 0 8h63.628a4 4 0 0 0 0-8zM105.814 231.949a4 4 0 0 0-4-4H38.186a4 4 0 1 0 0 8h63.628A4 4 0 0 0 105.814 231.949zM38.186 253.192a4 4 0 1 0 0 8H70a4 4 0 0 0 0-8zM38.939 68.24a3.791 3.791 0 0 0 .75-.23 4.488 4.488 0 0 0 .691-.36 4.919 4.919 0 0 0 .61-.5A3.964 3.964 0 0 0 40.38 61a4.047 4.047 0 0 0-1.441-.6 3.724 3.724 0 0 0-1.559 0 4.047 4.047 0 0 0-1.441.6 4.137 4.137 0 0 0-.609.49 4 4 0 0 0 2.83 6.83A4.111 4.111 0 0 0 38.939 68.24zM62.17 68.02a3.922 3.922 0 0 0 .74.22 3.526 3.526 0 0 0 .79.08 3.43 3.43 0 0 0 .779-.08 4.252 4.252 0 0 0 .75-.22 4.542 4.542 0 0 0 .691-.37 4.82 4.82 0 0 0 .6-.5 3.251 3.251 0 0 0 .5-.61 3.519 3.519 0 0 0 .37-.69 3.9 3.9 0 0 0 .23-.75 3.843 3.843 0 0 0 0-1.56 3.9 3.9 0 0 0-.23-.75 3.828 3.828 0 0 0-.37-.69 3.605 3.605 0 0 0-.5-.61 4.013 4.013 0 0 0-.6-.49 3.8 3.8 0 0 0-.691-.37 4.3 4.3 0 0 0-.75-.23 4.14 4.14 0 0 0-1.569 0 3.956 3.956 0 0 0-.74.23 3.264 3.264 0 0 0-.691.37 3.672 3.672 0 0 0-.609.49 4.161 4.161 0 0 0-.5.61 4.491 4.491 0 0 0-.37.69 4.56 4.56 0 0 0-.23.75 4.114 4.114 0 0 0-.07.78 4 4 0 0 0 1.17 2.83 4.326 4.326 0 0 0 .609.5A3.792 3.792 0 0 0 62.17 68.02zM85.91 66.54a3.251 3.251 0 0 0 .5.61 4.021 4.021 0 0 0 2.819 1.17 4.236 4.236 0 0 0 .791-.08 3.956 3.956 0 0 0 .74-.23 3.48 3.48 0 0 0 .69-.36 4.279 4.279 0 0 0 .61-.5 4.01 4.01 0 0 0 0-5.66 3.639 3.639 0 0 0-.61-.49 3.519 3.519 0 0 0-.69-.37 3.956 3.956 0 0 0-.74-.23 4.146 4.146 0 0 0-1.57 0 4.03 4.03 0 0 0-.75.23 3.8 3.8 0 0 0-.69.37 3.565 3.565 0 0 0-.6.49 3.605 3.605 0 0 0-.5.61 3.828 3.828 0 0 0-.37.69 3.7 3.7 0 0 0-.23.75 3.8 3.8 0 0 0 0 1.56 3.7 3.7 0 0 0 .23.75A3.828 3.828 0 0 0 85.91 66.54z"/></svg>